<svg width="24" height="24" viewBox="0 0 24 24" fill="none" xmlns="http://www.w3.org/2000/svg">
<path fill-rule="evenodd" clip-rule="evenodd" d="M20.6554 12.266C21.4515 13.01 22.2918 13.7099 23.0058 14.5289C23.3212 14.8929 23.6199 15.2684 23.8483 15.6908C24.172 16.2912 23.8788 16.9519 23.3163 16.9878L19.82 16.9863C18.9182 17.0579 18.1988 16.7104 17.5939 16.1203C17.1098 15.6483 16.6615 15.146 16.1961 14.6581C16.0052 14.4587 15.8055 14.2711 15.5669 14.1228C15.0896 13.8262 14.6753 13.917 14.4025 14.3935C14.1247 14.8781 14.0617 15.4148 14.0344 15.9549C13.997 16.7429 13.7481 16.9501 12.9211 16.9862C11.1537 17.066 9.47629 16.81 7.91806 15.9566C6.54426 15.2043 5.47894 14.1422 4.5517 12.9398C2.74634 10.5984 1.36379 8.02567 0.121208 5.38084C-0.158487 4.78495 0.0460603 4.46508 0.732958 4.45376C1.87358 4.43255 3.01405 4.43406 4.15601 4.45225C4.61959 4.45874 4.92649 4.71325 5.10549 5.13244C5.7226 6.58483 6.47771 7.96665 7.42553 9.24748C7.67794 9.58848 7.93532 9.92948 8.30184 10.1695C8.7073 10.4352 9.01602 10.3472 9.20677 9.91484C9.32781 9.64071 9.3808 9.34544 9.40808 9.05184C9.49845 8.04175 9.51035 7.03338 9.35186 6.02684C9.25455 5.39865 8.88488 4.99198 8.23 4.87311C7.89582 4.8125 7.94558 4.69347 8.10738 4.5109C8.38842 4.19601 8.65274 4 9.17964 4H13.1311C13.7532 4.11752 13.8913 4.385 13.9765 4.98413L13.9799 9.18536C13.9731 9.4173 14.1009 10.1056 14.5374 10.2591C14.8867 10.3684 15.117 10.1009 15.3265 9.88887C16.2726 8.92776 16.9479 7.79192 17.5511 6.61578C17.8188 6.09861 18.049 5.56153 18.2721 5.02489C18.4373 4.62668 18.6967 4.43074 19.1653 4.43942L22.9684 4.44267C23.0811 4.44267 23.1952 4.44425 23.3044 4.46214C23.9453 4.56667 24.1209 4.83054 23.923 5.42952C23.6111 6.36927 23.0043 7.15241 22.411 7.93917C21.7768 8.77915 21.0985 9.59036 20.4696 10.4353C19.8917 11.2069 19.9376 11.5958 20.6554 12.266Z"/>
</svg>
