<svg width="32" height="32" viewBox="0 0 32 32" fill="none" xmlns="http://www.w3.org/2000/svg">
<rect width="32" height="32" fill="url(#paint0_angular_3403_16)"/>
<path d="M11.68 23.2C10.6133 23.2 9.80667 22.9 9.26 22.3C8.71333 21.6867 8.44 20.8133 8.44 19.68V18.88H10.52V19.84C10.52 20.7467 10.9 21.2 11.66 21.2C12.0333 21.2 12.3133 21.0933 12.5 20.88C12.7 20.6533 12.8 20.2933 12.8 19.8C12.8 19.2133 12.6667 18.7 12.4 18.26C12.1333 17.8067 11.64 17.2667 10.92 16.64C10.0133 15.84 9.38 15.12 9.02 14.48C8.66 13.8267 8.48 13.0933 8.48 12.28C8.48 11.1733 8.76 10.32 9.32 9.72C9.88 9.10667 10.6933 8.8 11.76 8.8C12.8133 8.8 13.6067 9.10667 14.14 9.72C14.6867 10.32 14.96 11.1867 14.96 12.32V12.9H12.88V12.18C12.88 11.7 12.7867 11.3533 12.6 11.14C12.4133 10.9133 12.14 10.8 11.78 10.8C11.0467 10.8 10.68 11.2467 10.68 12.14C10.68 12.6467 10.8133 13.12 11.08 13.56C11.36 14 11.86 14.5333 12.58 15.16C13.5 15.96 14.1333 16.6867 14.48 17.34C14.8267 17.9933 15 18.76 15 19.64C15 20.7867 14.7133 21.6667 14.14 22.28C13.58 22.8933 12.76 23.2 11.68 23.2ZM19.9814 23.2C18.9147 23.2 18.1014 22.9 17.5414 22.3C16.9814 21.6867 16.7014 20.8133 16.7014 19.68V12.32C16.7014 11.1867 16.9814 10.32 17.5414 9.72C18.1014 9.10667 18.9147 8.8 19.9814 8.8C21.0481 8.8 21.8614 9.10667 22.4214 9.72C22.9814 10.32 23.2614 11.1867 23.2614 12.32V13.52H21.1814V12.18C21.1814 11.26 20.8014 10.8 20.0414 10.8C19.2814 10.8 18.9014 11.26 18.9014 12.18V19.84C18.9014 20.7467 19.2814 21.2 20.0414 21.2C20.8014 21.2 21.1814 20.7467 21.1814 19.84V17.1H20.0814V15.1H23.2614V19.68C23.2614 20.8133 22.9814 21.6867 22.4214 22.3C21.8614 22.9 21.0481 23.2 19.9814 23.2Z" fill="white"/>
<defs>
<radialGradient id="paint0_angular_3403_16" cx="0" cy="0" r="1" gradientUnits="userSpaceOnUse" gradientTransform="translate(-7.5 3.5) rotate(50.4923) scale(36.9391 31.1677)">
<stop offset="0.0895454" stop-color="#003D85"/>
<stop offset="0.870294" stop-color="#B80027"/>
</radialGradient>
</defs>
</svg>
